<svg width="512" height="512" viewBox="0 0 512 512" fill="none" xmlns="http://www.w3.org/2000/svg">
<g clip-path="url(#clip0_16214_24895)">
<rect width="512" height="512" fill="#7424CF"/>
<path d="M763 415C763 703.293 529.293 937 241 937C-47.2926 937 -281 703.293 -281 415C-281 126.707 -47.2926 -107 241 -107C529.293 -107 763 126.707 763 415Z" fill="#96BEC7"/>
<path fill-rule="evenodd" clip-rule="evenodd" d="M241 927.057C523.801 927.057 753.057 697.801 753.057 415C753.057 132.199 523.801 -97.0571 241 -97.0571C-41.8014 -97.0571 -271.057 132.199 -271.057 415C-271.057 697.801 -41.8014 927.057 241 927.057ZM241 937C529.293 937 763 703.293 763 415C763 126.707 529.293 -107 241 -107C-47.2926 -107 -281 126.707 -281 415C-281 703.293 -47.2926 937 241 937Z" fill="#3E6473"/>
<path d="M650.861 407.996C650.861 538.143 478.81 646.205 265.076 646.205C51.3415 646.205 -121.905 540.722 -121.905 410.544C-121.905 280.365 51.373 170.667 265.076 170.667C478.779 170.667 650.861 277.848 650.861 407.964V407.996Z" fill="#98DAE8"/>
<path d="M263.851 678.032C473.433 678.032 643.313 572.518 643.313 442.402C643.313 312.286 473.433 206.772 263.851 206.772C54.2691 206.772 -115.611 312.286 -115.611 442.402C-115.611 572.518 54.2691 678.032 263.851 678.032V678.032Z" fill="#B659EF"/>
<path fill-rule="evenodd" clip-rule="evenodd" d="M-3.08392 401.286C-71.036 443.473 -112.216 501.232 -112.216 564.308C-112.216 627.384 -71.036 685.111 -3.08392 727.33C64.8052 769.485 158.869 795.722 262.999 795.722C367.129 795.722 461.192 769.517 529.081 727.33C597.034 685.111 638.214 627.384 638.214 564.308C638.214 501.232 597.034 443.504 529.081 401.286C461.192 359.13 367.129 332.893 262.999 332.893C158.869 332.893 64.8052 359.099 -3.08392 401.286V401.286ZM-7.55114 394.081C61.8795 350.951 157.579 324.431 263.03 324.431C368.482 324.431 464.149 350.951 533.58 394.081C602.948 437.149 646.739 497.236 646.739 564.308C646.739 631.379 602.979 691.466 533.58 734.534C464.149 777.665 368.45 804.185 263.03 804.185C157.61 804.185 61.911 777.665 -7.55114 734.534C-76.9189 691.435 -120.71 631.379 -120.71 564.308C-120.71 497.236 -76.9503 437.149 -7.55114 394.081V394.081Z" fill="#4F0D76"/>
<path d="M206.624 186.42C340.395 232.301 407.3 201.726 418.733 176.867C456.943 94.6935 284.961 87.0591 284.961 87.0591C284.961 87.0591 231.445 88.9771 187.481 115.716" fill="#96BEC7"/>
<path d="M216.553 133.655C291.694 100.41 299.328 101.388 350.663 96.762C317.229 88.4882 285.037 87.0591 285.037 87.0591C285.037 87.0591 231.521 88.9771 187.557 115.716L206.662 120.793C210.874 113.121 208.58 137.191 216.553 133.655V133.655Z" fill="#47979E"/>
<path d="M350.627 96.7625C359.69 135.536 349.987 175.514 326.67 205.939C378.381 206.992 406.211 190.143 412.981 175.476C430.28 127.375 388.987 105.149 350.627 96.7625V96.7625Z" fill="#57BF38"/>
<path d="M402.112 119.665C403.24 122.072 403.993 122.561 404.895 125.043C408.656 135.084 408.731 145.615 406.287 155.957C402.3 172.768 389.777 188.676 377.103 200.673C399.216 194.693 412.116 184.689 416.516 175.551C430.431 156.86 418.584 131.963 402.112 119.703V119.665Z" fill="#6FE043"/>
<path d="M206.623 186.42C262.245 201.952 354.31 221.208 404.103 185.48C450.398 139.56 376.536 103.607 335.468 98.6053C285.224 85.4425 233.287 92.0615 187.518 115.717C231.219 86.3075 286.202 76.9431 337.424 88.6392C520.5 124.254 415.272 277.92 206.623 186.42H206.661H206.623Z" fill="#446372"/>
<path d="M213.316 134.819C277.814 101.875 328.923 62.8377 328.585 44.6354C330.503 -10.31 242.537 31.9991 202.334 50.6903C189.961 56.4443 178.115 63.289 166.908 71.1114C146.186 85.5905 115.46 101.649 94.0608 125.906" fill="#96BEC7"/>
<path d="M311.284 23.0111C241.935 17.5955 143.101 77.1667 89.3967 128.201L121.589 110.525C184.658 72.6537 256.564 42.0784 311.284 23.0111V23.0111Z" fill="#99DBE9"/>
<path d="M241.371 31.623C262.056 48.7722 263.259 83.6349 253.293 112.593C341.484 59.4905 341.86 -5.38336 241.371 31.623Z" fill="#57BF38"/>
<path d="M290.076 20.7937C319.899 30.1581 307.376 59.5676 295.981 81.7188C329.866 57.1231 336.184 16.356 290.076 20.7937V20.7937Z" fill="#6FE043"/>
<path d="M326.704 23.0115C285.447 -7.78951 134.714 73.5943 89.3967 128.201C131.405 88.3367 300.754 -4.25435 320.686 31.21C340.618 66.6744 239.152 115.64 213.315 134.82C248.178 116.317 367.96 53.8125 326.704 23.0115V23.0115Z" fill="#446372"/>
<path d="M260.85 635.216C436.344 635.216 578.589 545.773 578.589 435.449C578.589 325.125 436.313 235.682 260.85 235.682C85.3874 235.682 -56.8889 325.125 -56.8889 435.449C-56.8889 545.773 85.3874 635.216 260.85 635.216Z" fill="#290052"/>
<path fill-rule="evenodd" clip-rule="evenodd" d="M414.896 365.714C414.896 360.994 411.069 357.168 406.349 357.168H333.206C328.486 357.168 324.66 360.994 324.66 365.714V390.095C324.66 394.815 328.486 398.642 333.206 398.642C337.926 398.642 341.753 394.815 341.753 390.095V374.261H406.349C411.069 374.261 414.896 370.434 414.896 365.714Z" fill="#DD13FD"/>
<path fill-rule="evenodd" clip-rule="evenodd" d="M402.386 332.175C406.303 334.363 411.253 332.962 413.443 329.046C415.633 325.128 414.233 320.176 410.315 317.986L406.35 325.079C410.315 317.986 410.317 317.987 410.315 317.986L410.298 317.976L410.275 317.964L410.214 317.93L410.026 317.828C409.874 317.746 409.665 317.636 409.403 317.501C408.88 317.233 408.144 316.867 407.215 316.436C405.362 315.577 402.727 314.453 399.489 313.335C393.059 311.113 384.004 308.825 373.841 308.825C363.678 308.825 354.624 311.113 348.193 313.335C344.955 314.453 342.32 315.577 340.467 316.436C339.539 316.867 338.802 317.233 338.279 317.501C338.017 317.636 337.809 317.746 337.656 317.828L337.469 317.93L337.407 317.964L337.384 317.976L337.375 317.982C337.373 317.983 337.367 317.986 341.333 325.079L337.367 317.986C333.449 320.176 332.049 325.128 334.24 329.046C336.427 332.957 341.366 334.359 345.281 332.183C345.285 332.181 345.289 332.179 345.293 332.177L341.527 325.427C345.299 332.173 345.294 332.176 345.293 332.177C345.289 332.179 345.285 332.181 345.281 332.183L345.346 332.148C345.415 332.111 345.536 332.047 345.707 331.959C346.049 331.783 346.588 331.514 347.303 331.183C348.737 330.518 350.859 329.61 353.501 328.697C358.832 326.856 366.031 325.079 373.841 325.079C381.651 325.079 388.851 326.856 394.181 328.697C396.823 329.61 398.945 330.518 400.379 331.183C401.094 331.514 401.634 331.783 401.976 331.959C402.146 332.047 402.268 332.111 402.337 332.148L402.4 332.182L402.386 332.175Z" fill="#DD13FD"/>
<path fill-rule="evenodd" clip-rule="evenodd" d="M97.1045 365.714C97.1045 360.994 100.931 357.168 105.651 357.168H178.794C183.514 357.168 187.34 360.994 187.34 365.714V390.095C187.34 394.815 183.514 398.642 178.794 398.642C174.074 398.642 170.247 394.815 170.247 390.095V374.261H105.651C100.931 374.261 97.1045 370.434 97.1045 365.714Z" fill="#DD13FD"/>
<path fill-rule="evenodd" clip-rule="evenodd" d="M109.613 332.175C105.696 334.363 100.747 332.962 98.5572 329.046C96.3667 325.128 97.7668 320.176 101.684 317.986L105.65 325.079C101.684 317.986 101.682 317.987 101.684 317.986L101.702 317.976L101.725 317.964L101.786 317.93L101.973 317.828C102.126 317.746 102.335 317.636 102.596 317.501C103.119 317.233 103.856 316.867 104.784 316.436C106.638 315.577 109.273 314.453 112.511 313.335C118.941 311.113 127.995 308.825 138.159 308.825C148.322 308.825 157.376 311.113 163.807 313.335C167.045 314.453 169.679 315.577 171.533 316.436C172.461 316.867 173.198 317.233 173.721 317.501C173.982 317.636 174.191 317.746 174.344 317.828L174.531 317.93L174.593 317.964L174.615 317.976L174.625 317.982C174.627 317.983 174.633 317.986 170.667 325.079L174.633 317.986C178.55 320.176 179.95 325.128 177.76 329.046C175.573 332.957 170.633 334.359 166.719 332.183C166.715 332.181 166.711 332.179 166.707 332.177L170.472 325.427C166.7 332.173 166.705 332.176 166.707 332.177C166.711 332.179 166.715 332.181 166.719 332.183L166.654 332.148C166.585 332.111 166.464 332.047 166.293 331.959C165.951 331.783 165.412 331.514 164.696 331.183C163.263 330.518 161.141 329.61 158.498 328.697C153.168 326.856 145.968 325.079 138.159 325.079C130.349 325.079 123.149 326.856 117.819 328.697C115.176 329.61 113.054 330.518 111.621 331.183C110.905 331.514 110.366 331.783 110.024 331.959C109.853 332.047 109.732 332.111 109.663 332.148L109.6 332.182L109.613 332.175Z" fill="#DD13FD"/>
<path d="M528.254 353.286C489.278 294.254 383.893 251.937 260 251.937C102.949 251.937 -24.3809 319.909 -24.3809 403.74C-24.3809 424.86 -16.3022 444.969 -1.71238 463.238C158.685 278.265 449.728 278.706 528.224 353.286H528.254Z" fill="#CB50FF" fill-opacity="0.32"/>
<path fill-rule="evenodd" clip-rule="evenodd" d="M204.225 402.194C204.225 397.706 207.863 394.067 212.352 394.067H301.748C306.237 394.067 309.875 397.706 309.875 402.194V414.955C309.875 443.898 286.111 467.21 257.05 467.21C227.989 467.21 204.225 443.898 204.225 414.955V402.194ZM220.479 410.321V414.955C220.479 434.725 236.768 450.956 257.05 450.956C277.332 450.956 293.621 434.725 293.621 414.955V410.321H220.479Z" fill="#DD13FD"/>
</g>
<defs>
<clipPath id="clip0_16214_24895">
<rect width="512" height="512" fill="white"/>
</clipPath>
</defs>
</svg>
